<?xml version="1.0" encoding="iso-8859-1"?>
<!-- Generator: Adobe Illustrator 18.1.1, SVG Export Plug-In . SVG Version: 6.00 Build 0)  -->
<svg version="1.1" id="Capa_1" xmlns="http://www.w3.org/2000/svg" xmlns:xlink="http://www.w3.org/1999/xlink" x="0px" y="0px"
	 viewBox="0 0 25.743 25.743" style="enable-background:new 0 0 25.743 25.743;" xml:space="preserve">
<g>
	<g>
		<path style="fill:#010002;" d="M25.562,24.066c-0.343-0.567-2.567-4.512-0.062-7.019c0.23-0.225,0.293-0.563,0.174-0.861
			c-0.123-0.294-0.411-0.482-0.732-0.482H0.788C0.349,15.701,0,16.057,0,16.491v8.076c0,0.432,0.349,0.788,0.788,0.788h24.154
			c0.006,0,0.006,0,0.006,0c0.439,0,0.795-0.356,0.795-0.788C25.743,24.375,25.674,24.2,25.562,24.066z M1.092,23.912v-6.774h22.737
			c-0.496,0.924-0.683,1.894-0.683,2.827H5.963c-0.315,0-0.562,0.253-0.562,0.563c0,0.311,0.247,0.562,0.562,0.562H23.23
			c0.164,1.1,0.53,2.092,0.862,2.823L1.092,23.912L1.092,23.912z"/>
		<path style="fill:#010002;" d="M11.224,14.989c0.109,0.01,0.897,0.014,1.772,0.014c3.526,0,5.665-4.163,5.665-7.22
			c0.217-3.392-3.215-4.5-6.139-3.896c-0.042-0.062-0.116-0.181-0.202-0.331c1.98,0.615,4.307-0.515,5.021-2.445
			c-1.94-0.639-4.292,0.454-5.048,2.398c-0.322-0.571-0.842-1.661-1.074-3.121L10.51,0.501c0.24,1.525,0.772,2.675,1.127,3.312
			C8.809,3.382,5.686,4.541,5.893,7.782C5.893,10.741,7.853,14.739,11.224,14.989z"/>
	</g>
</g>
<g>
</g>
<g>
</g>
<g>
</g>
<g>
</g>
<g>
</g>
<g>
</g>
<g>
</g>
<g>
</g>
<g>
</g>
<g>
</g>
<g>
</g>
<g>
</g>
<g>
</g>
<g>
</g>
<g>
</g>
</svg>
