<?xml version="1.0" encoding="iso-8859-1"?>
<!-- Generator: Adobe Illustrator 18.1.1, SVG Export Plug-In . SVG Version: 6.00 Build 0)  -->
<svg version="1.1" id="Capa_1" xmlns="http://www.w3.org/2000/svg" xmlns:xlink="http://www.w3.org/1999/xlink" x="0px" y="0px"
	 viewBox="0 0 31.303 31.303" style="enable-background:new 0 0 31.303 31.303;" xml:space="preserve">
<g>
	<g>
		<path style="fill:#010002;" d="M7.402,6.718H0.569C0.256,6.718,0,6.975,0,7.29v18.123c0,0.314,0.256,0.571,0.569,0.571h6.833
			c0.312,0,0.57-0.257,0.57-0.571V7.29C7.973,6.975,7.715,6.718,7.402,6.718z M6.83,24.842H1.141v-7.051H4.71v-1.439H1.141v-0.776
			H4.71v-1.444H1.141V7.861H6.83V24.842z"/>
		<path style="fill:#010002;" d="M16.391,6.718h-6.83c-0.317,0-0.57,0.257-0.57,0.571v18.123c0,0.314,0.253,0.571,0.57,0.571h6.83
			c0.315,0,0.57-0.257,0.57-0.571V7.29C16.961,6.975,16.706,6.718,16.391,6.718z M15.821,24.842H10.13V7.861h5.691V24.842z"/>
		<path style="fill:#010002;" d="M31.266,22.609L24.779,5.686c-0.055-0.14-0.162-0.255-0.302-0.317
			c-0.138-0.062-0.295-0.065-0.436-0.011l-6.38,2.445c-0.293,0.113-0.44,0.443-0.327,0.737l6.487,16.921
			c0.087,0.229,0.305,0.368,0.533,0.368c0.067,0,0.138-0.014,0.203-0.038l6.381-2.445c0.14-0.056,0.253-0.162,0.315-0.302
			C31.316,22.909,31.319,22.751,31.266,22.609z M24.684,24.522l-2.704-7.051l3.479-1.358l-0.504-1.283l-3.467,1.354l-0.457-1.189
			l3.459-1.353l-0.504-1.283l-3.45,1.349l-1.933-5.043l5.314-2.037l6.08,15.859L24.684,24.522z"/>
		<rect x="1.952" y="8.999" style="fill:#010002;" width="4.088" height="2.757"/>
		<rect x="10.931" y="8.999" style="fill:#010002;" width="4.09" height="2.757"/>
		<rect x="11.596" y="14.132" style="fill:#010002;" width="2.758" height="7.511"/>
		<circle style="fill:#010002;" cx="22.106" cy="9.901" r="1.854"/>
	</g>
</g>
<g>
</g>
<g>
</g>
<g>
</g>
<g>
</g>
<g>
</g>
<g>
</g>
<g>
</g>
<g>
</g>
<g>
</g>
<g>
</g>
<g>
</g>
<g>
</g>
<g>
</g>
<g>
</g>
<g>
</g>
</svg>
