<svg id="Capa_1" enable-background="new 0 0 512 512" height="512" viewBox="0 0 512 512" width="512" xmlns="http://www.w3.org/2000/svg" xmlns:xlink="http://www.w3.org/1999/xlink"><linearGradient id="SVGID_1_" gradientUnits="userSpaceOnUse" x1="256" x2="256" y1="481" y2="31"><stop offset="0" stop-color="#fd5900"/><stop offset="1" stop-color="#ffde00"/></linearGradient><g><g><path d="m497 61h-55.551c-11.519-9.199-43.2-30-95.449-30-45.555 0-75.375 15.842-90 26.032-14.625-10.19-44.445-26.032-90-26.032-52.249 0-83.93 20.801-95.449 30h-55.551c-8.291 0-15 6.709-15 15v360c0 8.291 6.709 15 15 15h198.563c6.196 17.461 22.881 30 42.437 30s36.24-12.539 42.437-30h198.563c8.291 0 15-6.709 15-15v-360c0-8.291-6.709-15-15-15zm-226 21.987c9.551-7.133 34.336-21.987 75-21.987 40.988 0 65.616 14.963 75 22.031v265.018c-16.802-8.555-41.77-17.049-75-17.049-33.179 0-58.198 8.467-75 17.007zm-180 .044c9.384-7.068 34.012-22.031 75-22.031 41.062 0 65.695 15.018 75 22.024v265.025c-16.802-8.555-41.77-17.049-75-17.049-33.179 0-58.198 8.467-75 17.007zm391 337.969h-196c-8.291 0-15 6.709-15 15 0 8.276-6.724 15-15 15s-15-6.724-15-15c0-8.291-6.709-15-15-15h-196v-330h31v285c0 6.021 3.647 11.426 9.199 13.77 5.552 2.358 12.026 1.113 16.318-3.076 1.085-1.055 27.115-25.694 79.483-25.694s78.398 24.639 79.482 25.693c5.976 5.887 15.793 4.926 20.837.103.057-.053.143-.049.198-.103 1.085-1.054 27.115-25.693 79.483-25.693 52.304 0 78.323 24.569 79.38 25.593 4.044 4.055 10.427 5.703 16.348 3.254 5.647-2.337 9.272-7.874 9.272-13.847v-285h31z" fill="url(#SVGID_1_)"/></g></g></svg>