<svg id="Capa_1" enable-background="new 0 0 512 512" height="512" viewBox="0 0 512 512" width="512" xmlns="http://www.w3.org/2000/svg"><g><g><path d="m312 34.375h-142.782c-4.142 0-7.5 3.358-7.5 7.5 0 13.971-11.366 25.337-25.337 25.337-4.142 0-7.5 3.358-7.5 7.5v274.348c0 4.142 3.358 7.5 7.5 7.5 13.971 0 25.337 11.366 25.337 25.337 0 4.142 3.358 7.5 7.5 7.5h213.338c4.143 0 7.5-3.358 7.5-7.5 0-13.971 11.366-25.337 25.338-25.337 4.143 0 7.5-3.358 7.5-7.5v-274.348c0-4.142-3.357-7.5-7.5-7.5-13.972 0-25.338-11.366-25.338-25.337 0-4.142-3.357-7.5-7.5-7.5h-35.556c-4.143 0-7.5 3.358-7.5 7.5s3.357 7.5 7.5 7.5h28.756c3.065 16.241 15.897 29.072 32.139 32.138v260.747c-16.241 3.065-29.073 15.897-32.139 32.138h-199.737c-3.065-16.241-15.897-29.072-32.138-32.138v-260.747c16.241-3.065 29.073-15.897 32.138-32.138h135.981c4.143 0 7.5-3.358 7.5-7.5s-3.357-7.5-7.5-7.5z"/><path d="m363.669 272.698 1.019-38.831 26.738-28.179c4.579-4.826 4.578-12.385 0-17.208l-26.738-28.179-1.019-38.83c-.173-6.649-5.518-11.995-12.168-12.169l-38.831-1.018-28.179-26.739s0 0 0-.001c-4.826-4.577-12.385-4.577-17.207.001l-28.179 26.739-38.832 1.018c-6.65.175-11.995 5.52-12.168 12.168l-1.018 38.832-26.737 28.178c-4.579 4.824-4.579 12.383 0 17.209l26.738 28.178 1.018 38.831c.173 6.649 5.518 11.995 12.168 12.169l38.831 1.018 28.178 26.738c2.412 2.29 5.508 3.434 8.604 3.434s6.192-1.145 8.604-3.434l28.179-26.739 38.832-1.018c6.649-.174 11.994-5.519 12.167-12.168zm-14.933-2.764-37.421.98c-3.093.082-6.031 1.3-8.274 3.429l-27.153 25.766-27.154-25.766c-2.244-2.128-5.182-3.346-8.276-3.428l-37.419-.98-.981-37.419c-.081-3.093-1.298-6.032-3.428-8.277l-25.766-27.153 25.767-27.154c2.129-2.245 3.347-5.184 3.428-8.276l.981-37.42 37.422-.98c3.092-.082 6.03-1.3 8.274-3.429l27.153-25.766 27.153 25.766c2.243 2.128 5.182 3.346 8.276 3.428l37.419.98.981 37.425c.083 3.092 1.301 6.03 3.429 8.271l25.766 27.154-25.765 27.152c-2.129 2.242-3.347 5.18-3.43 8.278z"/><path d="m337.852 201.311c-2.924-1.521-6.501-.953-8.812 1.4-7.886 8.031-18.419 12.455-29.66 12.455-22.924 0-41.573-18.65-41.573-41.574 0-11.241 4.423-21.774 12.455-29.66 2.353-2.31 2.921-5.886 1.399-8.812s-4.771-4.515-8.018-3.915c-31.736 5.866-54.771 33.573-54.771 65.879 0 36.952 30.063 67.015 67.015 67.015 32.307 0 60.013-23.034 65.879-54.771.6-3.242-.989-6.495-3.914-8.017zm-61.964 47.788c-28.681 0-52.015-23.333-52.015-52.015 0-17.464 8.67-33.195 22.252-42.674-2.181 6.067-3.318 12.533-3.318 19.181 0 31.195 25.379 56.574 56.573 56.574 6.647 0 13.114-1.137 19.182-3.318-9.479 13.582-25.21 22.252-42.674 22.252z"/><path d="m272.28 167.979 8.43 9.837-1.037 12.913c-.21 2.605.952 5.132 3.067 6.668 2.114 1.536 4.877 1.862 7.289.856l11.961-4.977 11.961 4.977c.927.386 1.906.576 2.88.576 1.561 0 3.107-.487 4.409-1.432 2.115-1.537 3.277-4.063 3.067-6.668l-1.037-12.913 8.43-9.837c1.7-1.984 2.245-4.711 1.438-7.197s-2.852-4.372-5.394-4.978l-12.602-3.004-6.751-11.057c-1.362-2.23-3.788-3.591-6.401-3.591-2.614 0-5.039 1.361-6.401 3.592l-6.75 11.057-12.603 3.004c-2.542.606-4.586 2.492-5.394 4.978-.807 2.484-.262 5.211 1.438 7.196zm23.073-1.312c1.943-.463 3.621-1.682 4.662-3.387l1.976-3.236 1.977 3.237c1.041 1.705 2.72 2.924 4.662 3.387l3.688.879-2.468 2.88c-1.3 1.517-1.94 3.489-1.78 5.48l.304 3.78-3.502-1.457c-.922-.384-1.901-.576-2.881-.576s-1.959.192-2.881.576l-3.502 1.457.304-3.78c.16-1.991-.48-3.964-1.78-5.48l-2.468-2.88z"/><path d="m451.192 269.5c4.143 0 7.5-3.358 7.5-7.5v-249.279c0-7.014-5.706-12.721-12.72-12.721h-359.062c-18.528 0-33.602 15.074-33.602 33.603v444.794c0 18.529 15.074 33.603 33.602 33.603h359.062c7.015 0 12.721-5.707 12.721-12.721v-202.279c0-4.142-3.357-7.5-7.5-7.5s-7.5 3.358-7.5 7.5v114.382h-317.007c-6.875 0-13.273 2.074-18.603 5.631v-402.013h335.61v247c-.001 4.142 3.357 7.5 7.499 7.5zm-358.109 227.5h-6.173c-10.257 0-18.603-8.345-18.603-18.603v-444.794c.001-10.258 8.346-18.603 18.603-18.603h6.172v482zm329.065-32.177v-38.441h21.544v70.618h-335.61v-19.456h17.038v6.074c0 2.652 1.4 5.107 3.684 6.457 1.176.695 2.496 1.043 3.816 1.043 1.244 0 2.489-.309 3.616-.929l18.833-10.365 18.832 10.365c2.324 1.279 5.149 1.236 7.433-.114 2.283-1.35 3.684-3.805 3.684-6.457v-6.074h33.982c4.142 0 7.5-3.358 7.5-7.5s-3.358-7.5-7.5-7.5h-33.983v-10.244h222.131v10.244h-153.148c-4.142 0-7.5 3.358-7.5 7.5s3.358 7.5 7.5 7.5h155.428c7.014 0 12.72-5.707 12.72-12.721zm-282.028 6.106v-18.629h29.897v18.629l-11.332-6.237c-2.251-1.239-4.98-1.238-7.232 0zm-13.434-44.547h280.463v10.918h-274.529c-4.142 0-7.5 3.358-7.5 7.5v17.744h-17.038v-17.559c.001-10.257 8.346-18.603 18.604-18.603z"/><path d="m214.49 335.162c-4.142 0-7.5 3.358-7.5 7.5s3.358 7.5 7.5 7.5h122.795c4.143 0 7.5-3.358 7.5-7.5s-3.357-7.5-7.5-7.5z"/></g></g></svg>