<svg id="Capa_1" enable-background="new 0 0 512 512" height="512" viewBox="0 0 512 512" width="512" xmlns="http://www.w3.org/2000/svg" xmlns:xlink="http://www.w3.org/1999/xlink"><linearGradient id="SVGID_1_" gradientUnits="userSpaceOnUse" x1="256" x2="256" y1="512" y2="0"><stop offset="0" stop-color="#ffe59a"/><stop offset="1" stop-color="#ffffd5"/></linearGradient><linearGradient id="SVGID_2_" gradientUnits="userSpaceOnUse" x1="256" x2="256" y1="389.5" y2="122.5"><stop offset="0" stop-color="#ffde00"/><stop offset="1" stop-color="#fd5900"/></linearGradient><g><g><circle cx="256" cy="256" fill="url(#SVGID_1_)" r="256"/></g><g><g><path d="m353.706 310.618v-177.993c-9.948-5.078-24.723-10.125-44.412-10.125-19.702 0-34.463 5.064-44.412 10.147v177.944c9.941-5.067 24.773-10.091 44.412-10.091 19.675 0 34.461 5.041 44.412 10.118zm-106.588 0v-177.972c-9.949-5.083-24.709-10.146-44.412-10.146-19.688 0-34.464 5.046-44.412 10.125v177.966c9.941-5.067 24.773-10.091 44.412-10.091 19.675 0 34.461 5.041 44.412 10.118zm151-170.318h-26.647v186.9c0 7.861-9.581 11.901-15.171 6.285-.625-.607-16.042-15.185-47.005-15.185-31.002 0-46.424 14.619-47.066 15.245-2.987 2.896-8.863 3.564-12.456 0-.642-.626-16.064-15.245-47.066-15.245-31.001 0-46.424 14.619-47.066 15.245-2.568 2.477-6.35 3.233-9.663 1.825-3.296-1.391-5.448-4.598-5.448-8.17v-186.9h-26.647c-4.91 0-8.882 3.981-8.882 8.9v213.6c0 4.919 3.973 8.9 8.882 8.9h116.997c3.66 10.36 13.532 17.8 25.12 17.8s21.46-7.44 25.12-17.8h116.997c4.91 0 8.882-3.981 8.882-8.9v-213.6c.001-4.919-3.972-8.9-8.881-8.9z" fill="url(#SVGID_2_)"/></g></g></g></svg>