<svg id="Capa_1" enable-background="new 0 0 512 512" height="512" viewBox="0 0 512 512" width="512" xmlns="http://www.w3.org/2000/svg" xmlns:xlink="http://www.w3.org/1999/xlink"><linearGradient id="SVGID_1_" gradientUnits="userSpaceOnUse" x1="256" x2="256" y1="512" y2="0"><stop offset="0" stop-color="#5558ff"/><stop offset="1" stop-color="#00c0ff"/></linearGradient><g><g><path d="m436 0h-330c-24.814 0-45 20.186-45 45v422c0 24.814 20.186 45 45 45h330c8.291 0 15-6.709 15-15v-482c0-8.291-6.709-15-15-15zm-15 482h-315c-8.276 0-15-6.724-15-15s6.724-15 15-15h315zm0-60h-315c-5.284 0-10.285 1.082-15 2.763v-379.763c0-8.276 6.724-15 15-15h315zm-193.975-166.483c6.021 5.083 12.422 10.488 19.146 16.318 2.827 2.446 6.328 3.662 9.829 3.662s7.002-1.216 9.829-3.662c6.738-5.845 13.14-11.25 19.175-16.348 10.664-8.994 20.142-17.021 28.184-24.58 16.743-15.82 32.241-33.911 32.241-59.019 0-31.055-22.939-55.386-52.222-55.386-16.479 0-28.696 7.529-37.207 16.992-8.511-9.463-20.728-16.992-37.207-16.992-29.282 0-52.222 24.331-52.222 55.386 0 32.608 25.357 54.009 60.454 83.629zm-8.232-109.014c16.348 0 22.529 20.479 22.749 21.24 1.787 6.46 7.661 10.898 14.37 10.942h.103c6.665 0 12.539-4.438 14.414-10.84.249-.864 6.431-21.343 22.778-21.343 14.59 0 22.222 12.773 22.222 25.386 0 11.25-6.401 21.68-22.822 37.192-7.676 7.222-16.758 14.883-26.953 23.481-3.12 2.637-6.343 5.361-9.653 8.174-3.311-2.813-6.519-5.522-9.624-8.145-33.633-28.389-49.805-42.832-49.805-60.703-.001-12.611 7.631-25.384 22.221-25.384zm97.207 154.497h-120c-8.291 0-15 6.709-15 15s6.709 15 15 15h120c8.291 0 15-6.709 15-15s-6.709-15-15-15z" fill="url(#SVGID_1_)"/></g></g></svg>